<?xml version="1.0" encoding="UTF-8"?>
<svg id="Layer_2" data-name="Layer 2" xmlns="http://www.w3.org/2000/svg" viewBox="0 0 213.01 218.35">
  <defs>
    <style>
      .cls-1 {
        fill: #00aeef;
      }
    </style>
  </defs>
  <g id="Layer_1-2" data-name="Layer 1">
    <path class="cls-1" d="M52.37,131.61v-18h-22.25C13.49,113.61,0,127.1,0,143.74v44.49C0,204.86,13.49,218.35,30.13,218.35h44.49c16.64,0,30.13-13.49,30.13-30.13v-26.49h-22.25c-16.64,0-30.13-13.49-30.13-30.13Z"/>
    <path class="cls-1" d="M82.37,56.62h22.37v-26.49c0-16.64-13.49-30.13-30.13-30.13H30C13.43,0,0,13.43,0,30v44.62c0,16.64,13.49,30.13,30.13,30.13h22.25v-18.13c0-16.57,13.43-30,30-30Z"/>
    <path class="cls-1" d="M160.64,86.74v18h22.25c16.64,0,30.13-13.49,30.13-30.13V30.13c0-16.64-13.49-30.13-30.13-30.13h-44.49c-16.64,0-30.13,13.49-30.13,30.13v26.49h22.25c16.64,0,30.13,13.49,30.13,30.13Z"/>
    <path class="cls-1" d="M130.64,161.74h-22.37v26.49c0,16.64,13.49,30.13,30.13,30.13h44.62c16.57,0,30-13.43,30-30v-44.62c0-16.64-13.49-30.13-30.13-30.13h-22.25v18.13c0,16.57-13.43,30-30,30Z"/>
  </g>
</svg>