<?xml version="1.0" encoding="UTF-8"?>
<svg id="Layer_2" data-name="Layer 2" xmlns="http://www.w3.org/2000/svg" viewBox="0 0 222.24 217.98">
  <defs>
    <style>
      .cls-1 {
        fill: #00aeef;
      }
    </style>
  </defs>
  <g id="Layer_1-2" data-name="Layer 1">
    <g>
      <path class="cls-1" d="M52.37,131.23v-18h-22.25c-16.64,0-30.13,13.49-30.13,30.13v44.49c0,16.64,13.49,30.13,30.13,30.13h44.49c16.64,0,30.13-13.49,30.13-30.13v-26.49h-22.25c-16.64,0-30.13-13.49-30.13-30.13Z"/>
      <g>
        <path class="cls-1" d="M192.11,0h-48.73c-16.64,0-30.13,13.49-30.13,30.13v26.49h13.74c16.64,0,30.13,13.49,30.13,30.13v44.49c0,16.64-13.49,30.13-30.13,30.13h-13.74v26.49c0,16.64,13.49,30.13,30.13,30.13h48.73c16.64,0,30.13-13.49,30.13-30.13V30.13c0-16.64-13.49-30.13-30.13-30.13Z"/>
        <path class="cls-1" d="M82.37,56.62h22.37v-26.49c0-16.64-13.49-30.13-30.13-30.13H30C13.43,0,0,13.43,0,30v44.62c0,16.64,13.49,30.13,30.13,30.13h22.25v-18.13c0-16.57,13.43-30,30-30Z"/>
      </g>
    </g>
  </g>
</svg>